<?xml version="1.0" encoding="UTF-8"?>
<svg width="24px" height="27px" viewBox="0 0 24 27" version="1.1" xmlns="http://www.w3.org/2000/svg" xmlns:xlink="http://www.w3.org/1999/xlink">
    <title>Group</title>
    <g id="Web" stroke="none" stroke-width="1" fill="none" fill-rule="evenodd">
        <g id="DASHBOARD-LANDING" transform="translate(-50.000000, -454.000000)">
            <g id="Group-12" transform="translate(50.000000, 404.000000)">
                <g id="Group" transform="translate(0.000000, 50.000000)">
                    <path d="M8.4216,9.11933887 C8.2984,9.62200554 8.21066667,10.1006722 8.1496,10.5358722 L8.1496,10.5358722 L3.16826667,10.5358722 C2.58133333,10.5358722 2.1016,10.8956055 2.10186667,11.3350722 L2.10186667,11.3350722 L2.10586667,11.3652055 C2.10533333,11.3724055 2.1016,11.3785389 2.1016,11.3860055 L2.1016,11.3860055 L2.10213333,11.8670722 C2.10213333,12.0137389 2.2224,12.1337389 2.3688,12.1337389 L2.3688,12.1337389 L22.7818667,12.1340055 L22.7818667,16.0526722 L22.3776,16.0526722 C22.3557333,16.0526722 22.3344,16.0550722 22.3130667,16.0558722 C22.2912,16.0553389 22.2704,16.0526722 22.2485333,16.0526722 L22.2485333,16.0526722 L17.6064,16.0526722 C16.136,16.0526722 14.9397333,17.2489389 14.9397333,18.7193389 L14.9397333,18.7193389 L14.9397333,19.9193389 C14.9397333,21.3894722 16.136,22.5860055 17.6064,22.5860055 L17.6064,22.5860055 L22.2485333,22.5860055 C22.2704,22.5860055 22.2912,22.5830722 22.3130667,22.5825389 C22.3344,22.5833389 22.3557333,22.5860055 22.3776,22.5860055 L22.3776,22.5860055 L22.7818667,22.5860055 L22.7818667,25.9510722 C22.7818667,26.2441389 22.5416,26.4844055 22.2485333,26.4844055 L22.2485333,26.4844055 L2.66666667,26.4844055 C1.2,26.4844055 -7.57912251e-15,25.2844055 -7.57912251e-15,23.8177389 L-7.57912251e-15,23.8177389 L-7.57912251e-15,11.7860055 C-7.57912251e-15,10.3193389 1.2,9.11933887 2.66666667,9.11933887 L2.66666667,9.11933887 Z M22.2490667,17.1193389 C22.2776,17.1193389 22.3058667,17.1220055 22.3344,17.1236055 C22.3490667,17.1230722 22.3626667,17.1193389 22.3776,17.1193389 L22.3776,17.1193389 L22.7818667,17.1193389 C23.3682667,17.1193389 23.8485333,17.5993389 23.8485333,18.1860055 L23.8485333,18.1860055 L23.8485333,20.4526722 C23.8485333,21.0393389 23.3682667,21.5193389 22.7818667,21.5193389 L22.7818667,21.5193389 L22.3776,21.5193389 C22.3626667,21.5193389 22.3490667,21.5153389 22.3344,21.5148055 C22.3058667,21.5164055 22.2776,21.5193389 22.2490667,21.5193389 L22.2490667,21.5193389 L17.6064,21.5193389 C16.7266667,21.5193389 16.0064,20.7993389 16.0064,19.9193389 L16.0064,19.9193389 L16.0064,18.7193389 C16.0064,17.8393389 16.7266667,17.1193389 17.6064,17.1193389 L17.6064,17.1193389 Z M18.1824,18.5193389 C17.7413333,18.5193389 17.3824,18.8780055 17.3824,19.3193389 C17.3824,19.7604055 17.7413333,20.1193389 18.1824,20.1193389 C18.6245333,20.1193389 18.9824,19.7604055 18.9824,19.3193389 C18.9824,18.8780055 18.6245333,18.5193389 18.1824,18.5193389 Z M16.0645333,9.82013887 L16.0645333,10.5358722 L14.3525333,10.5358722 C14.8754667,10.2324055 15.448,9.97667221 16.0645333,9.82013887 L16.0645333,9.82013887 Z M22.2485333,9.11933887 C22.5416,9.11933887 22.7818667,9.35933887 22.7818667,9.65267221 L22.7818667,9.65267221 L22.7818667,10.5358722 L20.5682667,10.5358722 L21.8525333,9.11933887 Z" id="Combined-Shape" fill="#B5C1CD"></path>
                    <path d="M17.4042667,8.04867221 C17.4944,8.04867221 17.5802667,8.04680554 17.6645333,8.04440554 L17.6645333,10.8228055 C17.6645333,11.1161389 17.8256,11.1782722 18.0229333,10.9612055 L22.6328,5.87640554 C22.8298667,5.65933887 22.8277333,5.30547221 22.6288,5.09027221 L18.0272,0.127338872 C17.8277333,-0.0878611276 17.6645333,-0.0235944609 17.6645333,0.269472206 L17.6645333,3.44787221 C17.5797333,3.44467221 17.4944,3.44227221 17.4042667,3.44227221 C11.1525333,3.44227221 9.90533333,8.79293887 9.66453333,11.3372055 L10.8632,11.3372055 C12.1330667,9.96547221 14.4370667,8.04867221 17.4042667,8.04867221" id="Fill-5" fill="#8397AB"></path>
                </g>
            </g>
        </g>
    </g>
</svg>