<?xml version="1.0" encoding="UTF-8"?>
<svg width="24px" height="18px" viewBox="0 0 24 18" version="1.1" xmlns="http://www.w3.org/2000/svg" xmlns:xlink="http://www.w3.org/1999/xlink">
    <title>Group</title>
    <g id="Web" stroke="none" stroke-width="1" fill="none" fill-rule="evenodd">
        <g id="DASHBOARD-LANDING" transform="translate(-50.000000, -404.000000)">
            <g id="Group-12" transform="translate(50.000000, 404.000000)">
                <g id="Group" transform="translate(0.000000, -0.000000)">
                    <path d="M23.7996832,9.07342574 L23.7996832,9.98019802 C23.7996832,11.0257426 22.9442376,11.8811881 21.8986931,11.8811881 L21.8986931,11.8811881 L20.4356436,11.8811881 L20.4356436,9.07342574 L23.7996832,9.07342574 Z M21.8986931,0 C22.9442376,0 23.7996832,0.855207921 23.7996832,1.9009901 L23.7996832,1.9009901 L23.7996832,6.51469307 L20.427802,6.51469307 C20.348198,4.75033663 18.8922772,3.33861386 17.1089109,3.33861386 L17.1089109,3.33861386 L4.7900198,3.33861386 L4.7900198,1.9009901 C4.7900198,0.855207921 5.64546535,0 6.6910099,0 L6.6910099,0 Z" id="Combined-Shape" fill="#FEDBE6"></path>
                    <path d="M17.1089109,4.76435644 C18.1544554,4.76435644 19.009901,5.61956436 19.009901,6.66534653 L19.009901,6.66534653 L19.009901,14.7445545 C19.009901,15.7903366 18.1544554,16.6455446 17.1089109,16.6455446 L17.1089109,16.6455446 L1.9009901,16.6455446 C0.855445545,16.6455446 -3.55271368e-15,15.7903366 -3.55271368e-15,14.7445545 L-3.55271368e-15,14.7445545 L-3.55271368e-15,6.66534653 C-3.55271368e-15,5.61956436 0.855445545,4.76435644 1.9009901,4.76435644 L1.9009901,4.76435644 Z M16.8175842,13.1895446 L13.966099,13.1895446 L13.966099,13.9209505 L16.8175842,13.9209505 L16.8175842,13.1895446 Z M13.015604,13.1895446 L10.1641188,13.1895446 L10.1641188,13.9209505 L13.015604,13.9209505 L13.015604,13.1895446 Z M8.976,13.1895446 L6.12451485,13.1895446 L6.12451485,13.9209505 L8.976,13.9209505 L8.976,13.1895446 Z M5.1740198,13.1895446 L2.32253465,13.1895446 L2.32253465,13.9209505 L5.1740198,13.9209505 L5.1740198,13.1895446 Z M4.42835644,7.37132673 L2.77235644,7.37132673 C2.5109703,7.37132673 2.29710891,7.58542574 2.29710891,7.84657426 L2.29710891,7.84657426 L2.29710891,9.64324752 C2.29710891,9.90439604 2.5109703,10.118495 2.77235644,10.118495 L2.77235644,10.118495 L4.42835644,10.118495 C4.68974257,10.118495 4.90360396,9.90439604 4.90360396,9.64324752 L4.90360396,9.64324752 L4.90360396,7.84657426 C4.90360396,7.58542574 4.68974257,7.37132673 4.42835644,7.37132673 L4.42835644,7.37132673 Z" id="Combined-Shape" fill="#FA4A84"></path>
                </g>
            </g>
        </g>
    </g>
</svg>